{"scene":0,"asset":{"generator":"ImageToStl.com","version":"2.0"},"scenes":[{"name":"Scene","nodes":[0]}],"nodes":[{"name":"Node0","children":[1,2,3,4,5,6,7,8,9,10]},{"name":"Node1","mesh":0},{"name":"Node2","mesh":1},{"name":"Node3","mesh":2},{"name":"Node4","mesh":3},{"name":"Node5","mesh":4},{"name":"Node6","mesh":5},{"name":"Node7","mesh":6},{"name":"Node8","mesh":7},{"name":"Node9","mesh":8},{"name":"Node10","mesh":9}],"materials":[{"name":"ABS_(White)","pbrMetallicRoughness":{"baseColorFactor":[1.0,1.0,1.0,1.0],"metallicFactor":0.0,"roughnessFactor":1.0},"doubleSided":true},{"name":"ABS_(Black)","pbrMetallicRoughness":{"baseColorFactor":[0.0,0.0,0.0,1.0],"metallicFactor":0.0,"roughnessFactor":1.0},"doubleSided":true}],"meshes":[{"name":"Mesh0","primitives":[{"indices":3,"material":0,"attributes":{"POSITION":0,"NORMAL":1,"TEXCOORD_0":2}}]},{"name":"Mesh0","primitives":[{"indices":7,"material":0,"attributes":{"POSITION":4,"NORMAL":5,"TEXCOORD_0":6}}]},{"name":"Mesh0","primitives":[{"indices":11,"material":0,"attributes":{"POSITION":8,"NORMAL":9,"TEXCOORD_0":10}}]},{"name":"Mesh0","primitives":[{"indices":15,"material":0,"attributes":{"POSITION":12,"NORMAL":13,"TEXCOORD_0":14}}]},{"name":"Mesh0","primitives":[{"indices":19,"material":0,"attributes":{"POSITION":16,"NORMAL":17,"TEXCOORD_0":18}}]},{"name":"Mesh0","primitives":[{"indices":23,"material":0,"attributes":{"POSITION":20,"NORMAL":21,"TEXCOORD_0":22}}]},{"name":"Mesh0","primitives":[{"indices":27,"material":0,"attributes":{"POSITION":24,"NORMAL":25,"TEXCOORD_0":26}}]},{"name":"Mesh0","primitives":[{"indices":31,"material":0,"attributes":{"POSITION":28,"NORMAL":29,"TEXCOORD_0":30}}]},{"name":"Mesh0","primitives":[{"indices":35,"material":0,"attributes":{"POSITION":32,"NORMAL":33,"TEXCOORD_0":34}}]},{"name":"Mesh0","primitives":[{"indices":39,"material":1,"attributes":{"POSITION":36,"NORMAL":37,"TEXCOORD_0":38}}]}],"accessors":[{"bufferView":0,"componentType":5126,"count":739,"type":"VEC3","min":[-0.13874,-0.037547,0.0],"max":[0.132675,0.077278,0.04]},{"bufferView":1,"componentType":5126,"count":739,"type":"VEC3"},{"bufferView":2,"componentType":5126,"count":739,"type":"VEC2"},{"bufferView":3,"componentType":5123,"count":10062,"type":"SCALAR"},{"bufferView":4,"componentType":5126,"count":975,"type":"VEC3","min":[-0.289686,-0.364313,0.0],"max":[-0.11226,-0.102602,0.04]},{"bufferView":5,"componentType":5126,"count":975,"type":"VEC3"},{"bufferView":6,"componentType":5126,"count":975,"type":"VEC2"},{"bufferView":7,"componentType":5123,"count":13014,"type":"SCALAR"},{"bufferView":8,"componentType":5126,"count":655,"type":"VEC3","min":[-0.353946,0.104398,0.0],"max":[0.34662,0.334275,0.04]},{"bufferView":9,"componentType":5126,"count":655,"type":"VEC3"},{"bufferView":10,"componentType":5126,"count":655,"type":"VEC2"},{"bufferView":11,"componentType":5123,"count":7956,"type":"SCALAR"},{"bufferView":12,"componentType":5126,"count":1106,"type":"VEC3","min":[-0.092951,-0.36173,0.0],"max":[0.058152,-0.105314,0.04]},{"bufferView":13,"componentType":5126,"count":1106,"type":"VEC3"},{"bufferView":14,"componentType":5126,"count":1106,"type":"VEC2"},{"bufferView":15,"componentType":5123,"count":15012,"type":"SCALAR"},{"bufferView":16,"componentType":5126,"count":963,"type":"VEC3","min":[0.100003,-0.361839,0.0],"max":[0.284805,-0.105257,0.04]},{"bufferView":17,"componentType":5126,"count":963,"type":"VEC3"},{"bufferView":18,"componentType":5126,"count":963,"type":"VEC2"},{"bufferView":19,"componentType":5123,"count":12330,"type":"SCALAR"},{"bufferView":20,"componentType":5126,"count":513,"type":"VEC3","min":[-0.243756,0.032968,0.0],"max":[0.240857,0.205476,0.04]},{"bufferView":21,"componentType":5126,"count":513,"type":"VEC3"},{"bufferView":22,"componentType":5126,"count":513,"type":"VEC2"},{"bufferView":23,"componentType":5123,"count":6030,"type":"SCALAR"},{"bufferView":24,"componentType":5126,"count":1884,"type":"VEC3","min":[-1.792266,-3.386321,0.16],"max":[1.800953,3.285787,0.2]},{"bufferView":25,"componentType":5126,"count":1884,"type":"VEC3"},{"bufferView":26,"componentType":5126,"count":1884,"type":"VEC2"},{"bufferView":27,"componentType":5123,"count":15246,"type":"SCALAR"},{"bufferView":28,"componentType":5126,"count":168,"type":"VEC3","min":[-0.068117,-3.22246,0.16],"max":[0.071984,-3.139994,0.2]},{"bufferView":29,"componentType":5126,"count":168,"type":"VEC3"},{"bufferView":30,"componentType":5126,"count":168,"type":"VEC2"},{"bufferView":31,"componentType":5123,"count":1368,"type":"SCALAR"},{"bufferView":32,"componentType":5126,"count":544,"type":"VEC3","min":[-0.896078,1.90217,0.14],"max":[0.913672,2.678886,0.18]},{"bufferView":33,"componentType":5126,"count":544,"type":"VEC3"},{"bufferView":34,"componentType":5126,"count":544,"type":"VEC2"},{"bufferView":35,"componentType":5123,"count":4572,"type":"SCALAR"},{"bufferView":36,"componentType":5126,"count":3334,"type":"VEC3","min":[-1.792266,-3.386321,0.0],"max":[1.800953,3.285787,0.16]},{"bufferView":37,"componentType":5126,"count":3334,"type":"VEC3"},{"bufferView":38,"componentType":5126,"count":3334,"type":"VEC2"},{"bufferView":39,"componentType":5123,"count":30240,"type":"SCALAR"}],"bufferViews":[{"target":34962,"buffer":0,"byteLength":8868,"byteOffset":0},{"target":34962,"buffer":0,"byteLength":8868,"byteOffset":8868},{"target":34962,"buffer":0,"byteLength":5912,"byteOffset":17736},{"target":34963,"buffer":0,"byteLength":20124,"byteOffset":23648},{"target":34962,"buffer":0,"byteLength":11700,"byteOffset":43772},{"target":34962,"buffer":0,"byteLength":11700,"byteOffset":55472},{"target":34962,"buffer":0,"byteLength":7800,"byteOffset":67172},{"target":34963,"buffer":0,"byteLength":26028,"byteOffset":74972},{"target":34962,"buffer":0,"byteLength":7860,"byteOffset":101000},{"target":34962,"buffer":0,"byteLength":7860,"byteOffset":108860},{"target":34962,"buffer":0,"byteLength":5240,"byteOffset":116720},{"target":34963,"buffer":0,"byteLength":15912,"byteOffset":121960},{"target":34962,"buffer":0,"byteLength":13272,"byteOffset":137872},{"target":34962,"buffer":0,"byteLength":13272,"byteOffset":151144},{"target":34962,"buffer":0,"byteLength":8848,"byteOffset":164416},{"target":34963,"buffer":0,"byteLength":30024,"byteOffset":173264},{"target":34962,"buffer":0,"byteLength":11556,"byteOffset":203288},{"target":34962,"buffer":0,"byteLength":11556,"byteOffset":214844},{"target":34962,"buffer":0,"byteLength":7704,"byteOffset":226400},{"target":34963,"buffer":0,"byteLength":24660,"byteOffset":234104},{"target":34962,"buffer":0,"byteLength":6156,"byteOffset":258764},{"target":34962,"buffer":0,"byteLength":6156,"byteOffset":264920},{"target":34962,"buffer":0,"byteLength":4104,"byteOffset":271076},{"target":34963,"buffer":0,"byteLength":12060,"byteOffset":275180},{"target":34962,"buffer":0,"byteLength":22608,"byteOffset":287240},{"target":34962,"buffer":0,"byteLength":22608,"byteOffset":309848},{"target":34962,"buffer":0,"byteLength":15072,"byteOffset":332456},{"target":34963,"buffer":0,"byteLength":30492,"byteOffset":347528},{"target":34962,"buffer":0,"byteLength":2016,"byteOffset":378020},{"target":34962,"buffer":0,"byteLength":2016,"byteOffset":380036},{"target":34962,"buffer":0,"byteLength":1344,"byteOffset":382052},{"target":34963,"buffer":0,"byteLength":2736,"byteOffset":383396},{"target":34962,"buffer":0,"byteLength":6528,"byteOffset":386132},{"target":34962,"buffer":0,"byteLength":6528,"byteOffset":392660},{"target":34962,"buffer":0,"byteLength":4352,"byteOffset":399188},{"target":34963,"buffer":0,"byteLength":9144,"byteOffset":403540},{"target":34962,"buffer":0,"byteLength":40008,"byteOffset":412684},{"target":34962,"buffer":0,"byteLength":40008,"byteOffset":452692},{"target":34962,"buffer":0,"byteLength":26672,"byteOffset":492700},{"target":34963,"buffer":0,"byteLength":60480,"byteOffset":519372}],"buffers":[{"byteLength":579852,"uri":"data:application/octet-stream;base64,"}]}